<svg width="61" height="22" viewBox="0 0 61 22" fill="none" xmlns="http://www.w3.org/2000/svg">
<g clip-path="url(#clip0_212_21321)">
<path d="M21.6149 8.36418L16.7323 12.5733H4.63965C3.51171 12.5718 2.42218 12.9659 1.57651 13.6812L7.67556 8.42207L7.76913 8.34262L15.4104 1.74862C16.6425 0.686493 18.3723 0.334972 19.9482 0.826465C21.5241 1.31796 22.7066 2.5778 23.0504 4.13141C23.3942 5.68503 22.847 7.29638 21.6149 8.35851V8.36418Z" fill="#F15B41"/>
<path d="M4.63973 9.50715C7.20218 9.50715 9.27946 7.51646 9.27946 5.06083C9.27946 2.60519 7.20218 0.614502 4.63973 0.614502C2.07728 0.614502 0 2.60519 0 5.06083C0 7.51646 2.07728 9.50715 4.63973 9.50715Z" fill="#F99D1D"/>
<path d="M4.63973 12.5732C3.51178 12.5718 2.42225 12.9659 1.57658 13.6811L1.53749 13.7152C-0.3675 15.3571 -0.522884 18.168 1.19043 19.9936C2.90375 21.8192 5.83697 21.9681 7.74196 20.3262L16.7336 12.5744L4.63973 12.5732Z" fill="#272560"/>
<path d="M16.7261 12.5766L7.7335 20.3284C6.882 21.0622 5.77647 21.4667 4.63135 21.4636L18.5052 21.4635C21.1812 21.4226 23.0706 19.4932 23.0706 17.0178C23.0706 14.5424 21.0383 12.6108 18.5052 12.572L16.7261 12.5766Z" fill="#00B6BD"/>
<path d="M29.7969 17.7467C29.4106 17.7604 29.0369 17.6143 28.7714 17.346C28.5115 17.0751 28.3729 16.7178 28.3852 16.3505C28.3816 15.9806 28.4773 15.6159 28.6633 15.2914C28.8266 15.0012 29.0261 14.731 29.2574 14.4866L34.9979 8.28648H29.9941C29.5093 8.28648 29.1624 8.12757 28.9722 7.812C28.7871 7.49499 28.6948 7.13622 28.7049 6.77335C28.6915 6.42363 28.797 6.07917 29.0055 5.79146C29.2122 5.51918 29.5486 5.36469 29.9003 5.38054H38.741C39.1148 5.36409 39.4793 5.49453 39.7498 5.74151C40.0006 5.98102 40.1277 6.32157 40.1277 6.75292C40.1383 7.08881 40.065 7.42228 39.9138 7.72573C39.7688 7.99011 39.5869 8.23449 39.3731 8.45221L33.395 14.8396H39.0594C39.4002 14.8315 39.7246 14.9791 39.9328 15.2369C40.1547 15.5252 40.2666 15.8773 40.2501 16.2347C40.2663 16.6071 40.1728 16.9764 39.9804 17.3006C39.7867 17.5969 39.4433 17.7478 38.9608 17.7478L29.7969 17.7467Z" fill="#272560"/>
<path d="M43.6842 17.9101C42.1109 17.9101 41.783 17.1382 41.783 16.4912V7.04688C41.783 6.55309 41.9386 6.15352 42.2476 5.85952C42.5565 5.56552 43.0485 5.41569 43.7115 5.41569C44.27 5.41569 44.7121 5.53715 45.0269 5.77779C45.3418 6.01844 45.5165 6.40666 45.5165 6.90612V16.4413C45.5165 16.96 45.3454 17.3414 45.0079 17.5764C44.6705 17.8114 44.2367 17.9101 43.6842 17.9101ZM43.6842 4.40201C43.0711 4.40201 42.5684 4.2306 42.1882 3.89233C41.8079 3.55406 41.6095 3.08752 41.6095 2.51428C41.5949 2.00608 41.8039 1.51529 42.1858 1.1612C42.5625 0.808172 43.0675 0.627686 43.6842 0.627686C44.1928 0.628745 44.6871 0.788149 45.0923 1.08174C45.5343 1.39277 45.7589 1.87633 45.7589 2.51882C45.7589 3.09206 45.564 3.55633 45.1802 3.89801C44.7964 4.23969 44.2938 4.40542 43.6842 4.40542V4.40201Z" fill="#272560"/>
<path d="M49.6184 21.5292C48.1473 21.5292 47.836 20.7448 47.836 20.0864V6.72687C47.8233 6.30843 47.9918 5.90351 48.3018 5.60762C48.6096 5.31361 49.1027 5.16377 49.7658 5.16377C50.1782 5.15977 50.5856 5.25007 50.954 5.42713C51.345 5.61897 51.5482 5.9947 51.5482 6.5339C51.6274 6.44687 51.7125 6.35757 51.8036 6.266C52.0534 6.02383 52.3326 5.81117 52.6354 5.63259C53.3714 5.19376 54.2241 4.96676 55.0916 4.97875C55.9229 4.96332 56.7464 5.13357 57.4966 5.47594C58.1832 5.7997 58.781 6.27241 59.2422 6.85628C59.7228 7.48078 60.0738 8.18747 60.276 8.93814C60.5073 9.78636 60.6208 10.66 60.6135 11.5365C60.622 12.4293 60.4914 13.3184 60.2261 14.1746C59.9916 14.9351 59.6068 15.6456 59.0925 16.2678C58.5969 16.854 57.9688 17.3255 57.2554 17.647C56.4791 17.987 55.6329 18.1565 54.7791 18.143C54.2072 18.1587 53.6368 18.082 53.0917 17.916C52.7003 17.7892 52.3283 17.6133 51.9854 17.3927C51.7996 17.2722 51.6283 17.1325 51.4745 16.9761V20.0183C51.4745 20.5473 51.3236 20.9378 51.0253 21.1784C50.7271 21.4191 50.2684 21.5292 49.6184 21.5292ZM54.141 8.00505C53.7361 7.99569 53.3355 8.08599 52.9777 8.26727C52.6409 8.44966 52.3524 8.70321 52.134 9.00852C51.8886 9.35394 51.7096 9.73832 51.6052 10.1437C51.4822 10.6147 51.4219 11.0987 51.4258 11.5842C51.4258 12.6898 51.6634 13.5763 52.1387 14.22C52.614 14.8636 53.2593 15.1644 54.1457 15.1644C55.0322 15.1644 55.6774 14.842 56.1254 14.178C56.5734 13.5139 56.8122 12.6296 56.8122 11.5842C56.8137 11.1 56.7514 10.6175 56.6268 10.1482C56.5224 9.7446 56.3473 9.3608 56.1087 9.01306C55.8966 8.70733 55.6115 8.45406 55.2769 8.27408C54.9288 8.09264 54.5375 7.99998 54.141 8.00505Z" fill="#272560"/>
</g>
<defs>
<clipPath id="clip0_212_21321">
<rect width="61" height="21" fill="white" transform="translate(0 0.5)"/>
</clipPath>
</defs>
</svg>
