<svg width="48" height="17" viewBox="0 0 48 17" fill="none" xmlns="http://www.w3.org/2000/svg">
<g clip-path="url(#clip0_212_13113)">
<path d="M16.8566 6.2591L13.0489 9.60919H3.61831C2.73868 9.60803 1.889 9.92167 1.22949 10.491L5.98589 6.30518L6.05887 6.24194L12.018 0.993651C12.9789 0.148289 14.3279 -0.131494 15.5568 0.259695C16.7858 0.650883 17.708 1.65361 17.9761 2.89016C18.2442 4.12671 17.8175 5.40922 16.8566 6.25459V6.2591Z" fill="#F15B41"/>
<path d="M3.61834 7.16913C5.61669 7.16913 7.23668 5.58471 7.23668 3.63022C7.23668 1.67573 5.61669 0.0913086 3.61834 0.0913086C1.61999 0.0913086 0 1.67573 0 3.63022C0 5.58471 1.61999 7.16913 3.61834 7.16913Z" fill="#F99D1D"/>
<path d="M3.61839 9.60913C2.73875 9.60797 1.88907 9.92162 1.22956 10.4909L1.19908 10.518C-0.286547 11.8248 -0.407725 14.0621 0.928421 15.5152C2.26457 16.9682 4.55207 17.0867 6.03769 15.7799L13.0499 9.61004L3.61839 9.60913Z" fill="#272560"/>
<path d="M13.044 9.61177L6.03106 15.7816C5.36701 16.3656 4.50485 16.6876 3.61182 16.6851L14.4314 16.6851C16.5184 16.6525 17.9919 15.1168 17.9919 13.1466C17.9919 11.1764 16.4069 9.63903 14.4314 9.60815L13.044 9.61177Z" fill="#00B6BD"/>
<path d="M23.2375 13.7266C22.9362 13.7375 22.6448 13.6213 22.4378 13.4077C22.235 13.1921 22.1269 12.9077 22.1366 12.6153C22.1338 12.3209 22.2084 12.0307 22.3534 11.7724C22.4808 11.5415 22.6364 11.3264 22.8168 11.1318L27.2936 6.19706H23.3913C23.0132 6.19706 22.7426 6.07057 22.5944 5.8194C22.45 5.56709 22.378 5.28154 22.3859 4.99272C22.3754 4.71438 22.4577 4.44022 22.6203 4.21122C22.7815 3.9945 23.0438 3.87155 23.3181 3.88416H30.2126C30.5041 3.87107 30.7884 3.97489 30.9994 4.17147C31.1949 4.3621 31.2941 4.63314 31.2941 4.97646C31.3023 5.24381 31.2451 5.50922 31.1273 5.75074C31.0141 5.96116 30.8723 6.15567 30.7056 6.32896L26.0435 11.4128H30.461C30.7267 11.4064 30.9797 11.5238 31.1421 11.729C31.3151 11.9585 31.4024 12.2387 31.3895 12.5232C31.4021 12.8196 31.3292 13.1135 31.1792 13.3716C31.0281 13.6074 30.7603 13.7275 30.3841 13.7275L23.2375 13.7266Z" fill="#272560"/>
<path d="M34.0675 13.8567C32.8406 13.8567 32.5848 13.2424 32.5848 12.7274V5.21047C32.5848 4.81746 32.7062 4.49943 32.9472 4.26543C33.1881 4.03143 33.5717 3.91218 34.0888 3.91218C34.5244 3.91218 34.8691 4.00885 35.1147 4.20038C35.3602 4.39192 35.4965 4.70091 35.4965 5.09844V12.6876C35.4965 13.1005 35.363 13.4041 35.0998 13.5911C34.8367 13.7781 34.4984 13.8567 34.0675 13.8567ZM34.0675 3.10537C33.5894 3.10537 33.1974 2.96895 32.9008 2.69971C32.6043 2.43048 32.4495 2.05915 32.4495 1.60289C32.4381 1.19841 32.6012 0.807782 32.899 0.525952C33.1927 0.244971 33.5866 0.101318 34.0675 0.101318C34.4641 0.102162 34.8496 0.229034 35.1656 0.462708C35.5104 0.71026 35.6855 1.09514 35.6855 1.60651C35.6855 2.06276 35.5335 2.43228 35.2342 2.70423C34.9349 2.97618 34.5429 3.10808 34.0675 3.10808V3.10537Z" fill="#272560"/>
<path d="M38.6955 16.7373C37.5482 16.7373 37.3055 16.113 37.3055 15.589V4.95585C37.2955 4.62281 37.427 4.30052 37.6687 4.06502C37.9087 3.83101 38.2933 3.71175 38.8104 3.71175C39.132 3.70857 39.4497 3.78044 39.7371 3.92136C40.0419 4.07405 40.2004 4.37311 40.2004 4.80226C40.2622 4.73299 40.3286 4.66192 40.3996 4.58904C40.5944 4.39629 40.8122 4.22703 41.0483 4.08489C41.6223 3.73562 42.2873 3.55495 42.9638 3.56449C43.6121 3.55221 44.2543 3.68771 44.8394 3.96021C45.3748 4.2179 45.841 4.59414 46.2007 5.05885C46.5755 5.5559 46.8492 6.11837 47.0069 6.71584C47.1873 7.39096 47.2758 8.08629 47.2701 8.78392C47.2767 9.49455 47.1749 10.2022 46.968 10.8836C46.7851 11.4889 46.485 12.0545 46.0839 12.5496C45.6974 13.0162 45.2076 13.3915 44.6513 13.6474C44.0459 13.918 43.386 14.0529 42.7201 14.0422C42.2741 14.0547 41.8292 13.9936 41.4042 13.8615C41.0989 13.7606 40.8088 13.6205 40.5414 13.445C40.3965 13.3491 40.2629 13.2379 40.143 13.1134V15.5348C40.143 15.9558 40.0253 16.2666 39.7927 16.4581C39.5601 16.6497 39.2024 16.7373 38.6955 16.7373ZM42.2224 5.97318C41.9067 5.96573 41.5942 6.0376 41.3152 6.18188C41.0526 6.32705 40.8276 6.52886 40.6573 6.77186C40.4659 7.04679 40.3263 7.35272 40.2449 7.67534C40.149 8.05026 40.102 8.43547 40.105 8.82186C40.105 9.70186 40.2903 10.4075 40.661 10.9198C41.0316 11.432 41.5348 11.6715 42.2261 11.6715C42.9174 11.6715 43.4206 11.4149 43.77 10.8863C44.1193 10.3578 44.3056 9.65397 44.3056 8.82186C44.3068 8.43649 44.2582 8.05251 44.161 7.67896C44.0796 7.35772 43.943 7.05224 43.757 6.77547C43.5916 6.53214 43.3692 6.33056 43.1083 6.1873C42.8368 6.04289 42.5317 5.96914 42.2224 5.97318Z" fill="#272560"/>
</g>
<defs>
<clipPath id="clip0_212_13113">
<rect width="47.5714" height="16.7143" fill="white"/>
</clipPath>
</defs>
</svg>
